<svg width="40" height="40" viewBox="0 0 40 40" fill="none" xmlns="http://www.w3.org/2000/svg">
  <!-- Crown -->
  <path d="M12 8L16 2L20 8L24 2L28 8H12Z" fill="currentColor"/>
  <circle cx="14" cy="10" r="1.5" fill="currentColor"/>
  <circle cx="20" cy="10" r="1.5" fill="currentColor"/>
  <circle cx="26" cy="10" r="1.5" fill="currentColor"/>
  <rect x="12" y="12" width="16" height="2" fill="currentColor"/>
  
  <!-- Letter O -->
  <path d="M20 16C13.3726 16 8 21.3726 8 28C8 34.6274 13.3726 40 20 40C26.6274 40 32 34.6274 32 28C32 21.3726 26.6274 16 20 16ZM20 36C15.5817 36 12 32.4183 12 28C12 23.5817 15.5817 20 20 20C24.4183 20 28 23.5817 28 28C28 32.4183 24.4183 36 20 36Z" fill="currentColor"/>
</svg>